<svg id="그룹_3427" data-name="그룹 3427" xmlns="http://www.w3.org/2000/svg" xmlns:xlink="http://www.w3.org/1999/xlink" width="53.628" height="46.555" viewBox="0 0 53.628 46.555">
  <defs>
    <clipPath id="clip-path">
      <rect id="사각형_4505" data-name="사각형 4505" width="53.628" height="46.555" fill="none"/>
    </clipPath>
  </defs>
  <g id="그룹_3426" data-name="그룹 3426" clip-path="url(#clip-path)">
    <path id="패스_7274" data-name="패스 7274" d="M49.53,206.372a2.422,2.422,0,0,1-.378.414,5.532,5.532,0,0,1-2.43,1c-2.02.467-4.068.8-6.117,1.109-2.665.4-5.3.908-7.987,1.187-2.531.263-5.06.5-7.6.678a25.323,25.323,0,0,1-5.016.036c-.622-.08-1.566-.491-2.2-.275a15.281,15.281,0,0,0-3.907-1.388c-.292-.035-.6-.012-.882-.04-.728-.07-1.862.1-1.781-.852a4.988,4.988,0,0,1,.524-1.417c.032-.074.061-.148.087-.221a15.313,15.313,0,0,1,1.44-2.892,26.517,26.517,0,0,1,5.495-6.31c.273-.23.548-.462.807-.705s.411-.334.733-.205l.076.032c.583.265.9.958,1.542,1.119l.061.014c.169.032.327-.141.466-.227a7.393,7.393,0,0,1,1.1-.642c.166-.066.212-.113.349-.02.1.071.208.147.318.21a.445.445,0,0,0,.29.093c.148-.024.3-.183.451-.186a.146.146,0,0,1,.091.029c.069.049.11.147.168.212a1.2,1.2,0,0,1,.24.335,1.6,1.6,0,0,0,.261.419c.229.268.518.48.73.764.111.15.21.31.32.462.035.048.089.149.15.232a.288.288,0,0,0,.151.128c.057-.16.169-.2.306-.289.163-.1.316-.219.478-.323.136-.086.461-.371.626-.321a.471.471,0,0,1,.154.1,2.367,2.367,0,0,0,.178.157c.12.082.238.166.355.254a3.735,3.735,0,0,1,.336.244c.126.119.3.357.481.389a.394.394,0,0,0,.166-.007.589.589,0,0,0,.289-.184c.054-.061.106-.124.162-.183a3.758,3.758,0,0,1,.387-.353c.149-.118.252-.343.43-.423.126-.057.23.069.323.213a1.671,1.671,0,0,0,.2.289,1.525,1.525,0,0,0,.583.382,3.413,3.413,0,0,0,1.468.024,5.824,5.824,0,0,0,.86-.18c.14-.046.286-.071.426-.117a3.881,3.881,0,0,0,.387-.213q.358-.166.71-.342l.329-.166c.169-.086,1.164-.58,1.764-.8.247-.091.427-.137.456-.089a12.512,12.512,0,0,0,1.143,1.244c.143.176.321.607.578.637.1.012.124-.064.238-.01.177.084.184.171.309.122a.794.794,0,0,0,.12-.064c.2-.121.345-.286.531-.421.528-.383,1-.829,1.526-1.224a1.027,1.027,0,0,1,.222-.142h0c.114-.044.19.011.325.2a5,5,0,0,0,.713.863c.314.287.735,1.338,1.175,1.294.115-.012.1-.183.266-.124.068.024.185.333.227.4a15.375,15.375,0,0,0,1.059,1.23,28.693,28.693,0,0,1,1.946,2.614c.477.725.781,1.421.206,2.225" transform="translate(-9.53 -166.63)" fill="#dbdfcd"/>
    <path id="패스_7275" data-name="패스 7275" d="M79.4,207.809c-.507.566-1.807.079-2.34-.188a6.147,6.147,0,0,0-1.408-.766,2.4,2.4,0,0,0-.966-.127c-.312.055-.592.364-.9.327-.125-.395.266-.618.345-.928a.965.965,0,0,0-.265-.927c-.091-.078-.32-.058-.345-.223s.151-.1.163-.18a1.043,1.043,0,0,0-.031-.641c-.185-.563-.476-1.085-.675-1.651-.119-.339-.238-.671-.329-1.018a1.951,1.951,0,0,1-.02-.649c0-.166-.74-1.428-.047-.96a4.252,4.252,0,0,0-.665-1.847c-.154-.337-.549-.818-.765-1.206l.076.033c.583.265.9.958,1.542,1.119l.012.019a1.742,1.742,0,0,0,.273.4c.17.174.8.488.505.736a1.864,1.864,0,0,0,.609,1.2c.26.263.354.677.633.911.474.4.417-.027.66-.352.769,1.169,1.5,2.366,2.247,3.547.406.641.77,1.3,1.187,1.933.224.338.855,1.043.5,1.434" transform="translate(-60.356 -166.968)" fill="#babfa6"/>
    <path id="패스_7276" data-name="패스 7276" d="M110.654,209.382a5.072,5.072,0,0,1-1.579-1.232c-.625-.628-1.459-.992-2.1-1.614-.442-.43-1.062-.812-1.283-1.373-.056-.143-.142-.525-.281-.6-.281-.154-.513.229-.719.363a11.321,11.321,0,0,0-1.1-2.4c-.308.153-.368-.222-.484-.4-.091-.142-.562-.5-.572-.591-.017-.153.3-.334.328-.548a2.434,2.434,0,0,0-.426-1.377c.069.049.11.147.168.212a1.2,1.2,0,0,1,.24.335,1.6,1.6,0,0,0,.261.419c.229.268.519.479.73.764.111.15.21.31.32.462.035.048.089.148.15.232.007.029.013.058.018.086.1.5-.072.769.414,1.057.305.182,1.585,1.289,1.417,1.472.437.952,1.606,1.3,2.279,2.056a4.725,4.725,0,0,0,.919.929,5.766,5.766,0,0,1,.7.367,2.363,2.363,0,0,1,.6,1.38" transform="translate(-86.897 -169.328)" fill="#babfa6"/>
    <path id="패스_7277" data-name="패스 7277" d="M134.258,218.872c-.476.406-1.081-.291-1.333-.579a3.808,3.808,0,0,0-1.189-1.11c-.259-.13-.562-.141-.8-.271-.834-.452-.942-1.882-1.41-2.554-.367.517-.558,0-.821-.279-.391-.418-.372-.043-.754-.1a1.906,1.906,0,0,1-.59-.489c-.176-.249-.259-.606-.434-.876a5.191,5.191,0,0,1-.385-.67c-.137-.3-.319-.636-.486-.982a2.322,2.322,0,0,0,.178.157c.12.083.238.166.355.254a3.671,3.671,0,0,1,.336.244c.126.119.3.356.481.389a.392.392,0,0,0,.166-.007c.056.1.109.2.156.3.219.484.483.392.91.546.285.1.835.6.832-.085.461.4.519.989.822,1.5.253.422.684.71.975,1.108a6.909,6.909,0,0,0,.837,1.143c.36.332,2.827,1.785,2.154,2.359" transform="translate(-106.933 -178.961)" fill="#babfa6"/>
    <path id="패스_7278" data-name="패스 7278" d="M151.181,210.647a1.572,1.572,0,0,1-.465.952c-.268.168-.518.106-.794.351-.341.3-.429.5-.874.307-.194-.082-.317-.168-.526-.237a2.619,2.619,0,0,0-.429-.171c-.115.007-.113.205-.2.2a1.849,1.849,0,0,1-1.347-1.249,1.678,1.678,0,0,0,.2.289,1.524,1.524,0,0,0,.582.382,3.412,3.412,0,0,0,1.468.024,5.819,5.819,0,0,0,.86-.18c.14-.046.286-.071.426-.117a3.914,3.914,0,0,0,.387-.213q.358-.166.71-.342" transform="translate(-124.315 -178.691)" fill="#babfa6"/>
    <path id="패스_7279" data-name="패스 7279" d="M197.1,211.711a5.411,5.411,0,0,1-1.261-1.189c-.312-.34-.364-.083-.684-.231-.176-.081-.182-.238-.279-.387-.5-.769-.726-1.926-1.464-2.482-.337.678-1.292-1.136-1.42-1.414a13.607,13.607,0,0,1-1.093-2.346c.247-.091.427-.136.456-.088a12.547,12.547,0,0,0,1.143,1.244c.143.176.322.607.579.637.1.012.124-.064.238-.01.177.084.184.171.309.122.195.324.408.637.581.986.3.6.568,1.232.912,1.8s.662,1.144,1.057,1.685c.3.417.989,1.105.926,1.672" transform="translate(-161.938 -172.675)" fill="#babfa6"/>
    <path id="패스_7280" data-name="패스 7280" d="M230.588,213.243a2.422,2.422,0,0,1-.378.414,2.361,2.361,0,0,1-1.129-1.354,7.663,7.663,0,0,0-.626-1.645,6.158,6.158,0,0,1-.732-1.209,2.376,2.376,0,0,0-.624-.835c-.274-.309-.288-.816-.548-1.1-.233-.258-.4-.049-.554-.126-.216-.109-.294-.414-.395-.652-.164-.386-.318-.756-.453-1.153-.117-.344-.327-.686-.479-1.037.114-.044.19.011.325.2a5,5,0,0,0,.713.863c.314.287.735,1.338,1.175,1.294.115-.012.1-.183.266-.124.068.024.185.333.227.4a15.379,15.379,0,0,0,1.059,1.23,28.689,28.689,0,0,1,1.947,2.614c.477.725.781,1.421.206,2.225" transform="translate(-190.588 -173.501)" fill="#babfa6"/>
    <path id="패스_7281" data-name="패스 7281" d="M86.247,202.9a.179.179,0,0,0-.068.016.193.193,0,0,0-.068.309c.149.123.357.095.495.265.171.212-.025.619.007.834a4.266,4.266,0,0,0,.2.447c.025.061-.091.156-.045.225.066.1.206.054.3.119s.32.2.233.355c-.06.1-.209.028-.281.13-.133.189.294.116.37.166.058.039.057.118.129.148a2.127,2.127,0,0,0,.4.034,1.142,1.142,0,0,1,.356.1.42.42,0,0,1,.206.212c.034.085.073.232-.032.283.1.128.354.061.493.1.2.064.343.424.428.595a5.566,5.566,0,0,0,.434.654c.255.383.389.842.638,1.23.266.416.7.684.938,1.108a1.585,1.585,0,0,0,1.131.9,4.191,4.191,0,0,0,1.277.113c-.013-.279-.394-.333-.6-.441.094-.05.242-.121.358-.171-.266-.183-.6-.234-.883-.4a4.526,4.526,0,0,1-.946-.82c-.212-.22-.217-.434-.368-.61-.17-.2-.537-.252-.739-.418a4.187,4.187,0,0,1-.9-1.256c-.115-.21-.7-.573-.665-.816.048-.289.489-.141.69-.214-.19-.267-1.307-.088-1.274-.483a2.183,2.183,0,0,0-.618-.074c-.085-.009-.269-.04-.188-.154s.413-.064.531-.074a7.346,7.346,0,0,0,.814-.059c-.015-.146-.385-.1-.5-.119a2.474,2.474,0,0,1-.468-.183,1.344,1.344,0,0,1-.449-.281c-.285-.279.447-.291.546-.4s-.09-.136-.2-.15a.583.583,0,0,1-.273-.066c-.158-.087-.4-.021-.526-.132s-.04-.213.09-.254a3.281,3.281,0,0,1,.745-.112c.111-.007.708.036.73-.1s-.5-.157-.558-.148c.027-.008.052-.023.081-.03,0-.01,0-.028.01-.036a1.61,1.61,0,0,0-.8-.133,2.2,2.2,0,0,1-.86-.017c-.121-.04-.2-.19-.32-.187" transform="translate(-73.001 -172.119)" fill="#fff"/>
    <path id="패스_7282" data-name="패스 7282" d="M48.177,201.491c.048-.014.661-.166.431-.311.035-.042.462-.217.193-.246.036-.124.235-.146.328-.228.07-.062.066-.115.117-.183.182-.243.582-.127.832-.209.434-.142-.11-.236-.218-.313-.237-.168.366-.194.457-.252-.041-.1-.166-.084-.069-.207s.432-.084.487-.2c.031-.068-.038-.1-.028-.172.014-.1.17-.194.222-.277.087-.139.1-.326.314-.31.194.015.119.115.088.247-.037.154.035.283-.1.385-.1.079-.323.08-.365.217.368.173,1.072-.117,1.241.424a3.99,3.99,0,0,1-1.2,0c-.072,0-.443-.017-.447.113-.008.228.85-.1.828.211.127.064.269,0,.4.084.041.026.058.068.107.094a3.43,3.43,0,0,0,.62.129c-.073.061-.244.034-.344.034-.238,0-.475-.013-.712-.015a2.355,2.355,0,0,0-.994.092c.076.123.32.09.414.219.011.016-.614.033-.659.043-.094.019-.468.084-.493.161-.034.1.389.082.453.082a1.438,1.438,0,0,1,.346.073,1.206,1.206,0,0,0,.28.01c.3.01.6.13.906.149a.513.513,0,0,1,.435.185.734.734,0,0,0,.1.109c-.183.137-.492.05-.708.1,0,.018.008.029.011.046a2.07,2.07,0,0,1-.67-.028c-.278-.026-.556-.083-.835-.1a2.4,2.4,0,0,0-.632.034,1.73,1.73,0,0,0-.288.121c-.237.086-.747.069-.877-.2.03,0,.068-.035.1-.04-.019-.025-.049-.044-.069-.068" transform="translate(-40.846 -168.454)" fill="#fff"/>
    <path id="패스_7283" data-name="패스 7283" d="M41.7,221.488c-.321.3-.616.477-.733.86.458.159,1.733-.532,1.347.413,1.118.078.67.451.479,1.228.541.169.737.065,1.183.384.366.262.768.426,1.167.676.149.093.651.412.639.638-.016.3-.545.349-.744.553.472.446,1.415.329,1.961.852-.672.256-1.644-.2-2.357-.24-.873-.043-1.761.034-2.63-.018.5-.13,1.039-.274,1.518-.409a3.557,3.557,0,0,0-.709-.476,4.769,4.769,0,0,0,.863-.522c-.327-.023-1.822-.521-1.892-.987-.1-.654,1.111-.3.426-1.041a3.4,3.4,0,0,0-1.385-.617c-1.162-.422.1-.445.145-1.1.226-.054.43-.11.723-.192" transform="translate(-34.226 -187.888)" fill="#fff"/>
    <path id="패스_7284" data-name="패스 7284" d="M170.289,206.952c-.112.046-.234.075-.347.112a.388.388,0,0,0-.212.137c-.03.054-.01.12-.025.179-.026.107-.257.083-.257.2,0,.093.215.019.234.1s-.2.053-.233.051a.437.437,0,0,0-.266.078c-.032.02-.088.048-.1.084s.012.069-.013.1-.106.051-.15.087a.363.363,0,0,0-.092.155.969.969,0,0,1-.141.345,1.34,1.34,0,0,1-.746.273c.031-.009.062-.018.093-.029-.163.031-.523.016-.566.22.219.1.635-.04.881-.055a1.657,1.657,0,0,0,.509-.1c.059-.023.113-.054.173-.073.039-.012.125-.016.135-.068.018-.092-.171-.061-.184-.134-.018-.1.381-.114.434-.115a2.1,2.1,0,0,0,.454-.082c-.061-.057-.253-.045-.333-.038s-.171.036-.23-.021a.959.959,0,0,1,.5-.1c.2-.019.394-.064.586-.1.078-.015.155-.037.233-.048a1.144,1.144,0,0,0,.276-.044c.04-.016.1-.065.052-.1-.017-.012-.088,0-.108,0a.38.38,0,0,1-.192-.046,1.093,1.093,0,0,0-.25-.1c-.1-.023-.209-.013-.306-.04a.865.865,0,0,1,.343-.1c.071-.009.311.029.363-.036.067-.083-.244-.137-.282-.143-.068-.012-.138-.029-.206-.033-.009,0-.276-.025-.245-.056.079-.078.213-.029.295-.088s-.039-.163-.1-.13c.127-.067.266-.04.375-.157.018-.019.017-.044.038-.063s.1-.037.138-.064c-.034-.079-.213-.022-.238-.084s.186-.142.21-.179c-.064,0-.132,0-.2,0-.027,0-.095-.007-.112.024s.013.036.013.053c0,.089-.01.118-.1.169a.972.972,0,0,1-.1.046" transform="translate(-142.058 -175.308)" fill="#fff"/>
    <path id="패스_7285" data-name="패스 7285" d="M155.825,227.068a2.455,2.455,0,0,0,.534.862c.032.028.1.038.142.072.062.053.115.13.172.188a5.577,5.577,0,0,1,.39.563c.478.607.9-.168,1.483.107.448.212.1.458.159.782.066.345.546-.127.778.138.057.065.01.215.064.264.081.074.342.033.443.029a3.912,3.912,0,0,0,1.139-.029,1.773,1.773,0,0,1,.9,0c.428.063.864,0,1.294.026A8.069,8.069,0,0,1,165,230.4c-.292.24-.733.137-1.089.183-.253.032-.5.075-.759.083a2.167,2.167,0,0,1-.587-.132,3.444,3.444,0,0,0-1.727.362c-.326.165-.4.413-.736.091-.171-.165-.321-.442-.571-.509-.211-.057-.338.091-.524.118a1.032,1.032,0,0,1-.877-.315,2.307,2.307,0,0,0-.528-.49,4.828,4.828,0,0,1-.541-.289c-.476-.358-.333-1.027-.831-1.328-.344-.208-.855-.4-.76-.92.084-.459.229-.133.354-.189" transform="translate(-131.876 -192.57)" fill="#fff"/>
    <path id="패스_7286" data-name="패스 7286" d="M212.839,206.48c-.123.079-.519.272-.575.428-.025.07.028.1.025.11-.022.085-.105.116-.171.193a.453.453,0,0,1-.291.19c-.153.049-.466.22-.523.392-.041.123.159.143.05.292-.079.108-.345.059-.388.168-.058.148.368.167.457.243.192.163.011.307-.074.471.123.126.4.09.565.157.247.1.492.215.733.331a2.716,2.716,0,0,0,.839.253,1.244,1.244,0,0,0,.523.007c-.013-.076-.154-.094-.22-.114a4.447,4.447,0,0,1-.639-.225,9.582,9.582,0,0,0-1.022-.424c-.139-.049-.547-.254-.387-.454.077-.1.217-.037.321-.03.041,0,.419.01.344-.064-.056-.056-.265-.037-.345-.061-.028-.008-.385-.113-.36-.158.111-.2.645-.161.849-.149.175.011.336.019.51.014.1,0,.29.014.35-.094.1-.179-.416-.187-.493-.189a3.814,3.814,0,0,0-.618.116c-.128.018-.548-.034-.308-.226.2-.161.586.1.767-.08-.024.024-.169-.107-.152-.165.03-.105.245-.076.256-.209.014-.178-.355-.158-.255-.361.055-.113.225-.075.244-.213.006-.044-.03-.113-.029-.15.034-.022.012.007.015,0" transform="translate(-178.958 -175.148)" fill="#fff"/>
    <path id="패스_7287" data-name="패스 7287" d="M221.645,235.705c.062.343.507.341.634.63.032.074.011.154.037.227s.076.1.1.157c.077.185.027.3.236.395a.492.492,0,0,1,.168.086c.054.049.063.11.136.15.4.22.691-.153,1.075-.169a4.34,4.34,0,0,0,.568.02c.123-.021.452-.086.518-.189-.088-.087-.323-.1-.437-.122a5.215,5.215,0,0,0-.647-.106c-.156-.015-.314-.014-.469-.042a1.1,1.1,0,0,1-.341-.078c-.1-.081-.009-.223-.1-.328a2.426,2.426,0,0,0-.5-.277,2.288,2.288,0,0,0-.612-.262c-.106-.029-.213-.058-.365-.092" transform="translate(-188.021 -199.948)" fill="#fff"/>
    <path id="패스_7288" data-name="패스 7288" d="M137.983,212.48a.163.163,0,0,1-.038,0c-.035-.153.231-.2.283-.323a.359.359,0,0,1,.15-.2c.068-.049.138-.092.206-.14a1.479,1.479,0,0,0,.17-.119c.052-.051.034-.1.07-.154s.2-.147.245-.088c.064.091-.114.162-.17.173.019.059.256.09.243.161s-.268,0-.318.01a.411.411,0,0,0-.21.143c.046.015.1,0,.143.017-.074.036-.272-.018-.264.113.24.086.619-.11.823.083-.186.143-.948-.178-1.024.082.06.045.189.029.2.13.007.078-.058.085-.121.1.062.065.278.053.369.06.106.008.215,0,.322,0a.538.538,0,0,1,.438.139c-.048.1-.317.064-.406.05a.95.95,0,0,0-.318-.059c-.136.025-.22.089-.368.064a.608.608,0,0,1-.321-.126c.035-.079.137-.065.15-.168a1.21,1.21,0,0,0-.251.042" transform="translate(-117.016 -179.368)" fill="#fff"/>
    <path id="패스_7289" data-name="패스 7289" d="M115.944,212.787c.047-.025.089-.045.1-.047a1.261,1.261,0,0,0,.324-.106c.035-.023.08-.054.083-.1s-.038-.054-.04-.081c0-.053-.032-.017.011-.071.027-.035.095-.04.134-.054.059-.021.156-.039.1-.112a1.17,1.17,0,0,1,.35-.126c.092-.024.169-.041.168.073,0,.2-.484.166-.383.293.051.064.294.039.373.057.094.022.289.067.3.187.017.194-.493,0-.624.015a.406.406,0,0,0,.04.137c-.054.027-.113.048-.168.075a.708.708,0,0,1-.334.041c-.064,0-.543.161-.542.052.033-.011.142-.04.15-.079.017-.081-.141-.03-.184-.065-.009-.008.075-.056.148-.093" transform="translate(-98.229 -179.903)" fill="#fff"/>
    <path id="패스_7290" data-name="패스 7290" d="M155.75,249.173c-.206.467-1.049.681-1.507.816-.538.157-.892-.185-1.433-.192a6.049,6.049,0,0,0-1.746.038c-.614.179-1.219.443-1.828.644-1.442.474-3.067.051-4.547-.213a31.389,31.389,0,0,1-3.812-.793c-1.268-.391-2.647-.2-3.891-.643-.864-.31-1.329-1.019-2.1-1.4a6.984,6.984,0,0,1-.839-.511c-.1-.065-.2-.132-.3-.2-.3-.187-1.749-.364-1.714-.743.322-.11.671-.127,1-.209a2.768,2.768,0,0,1,1.206-.209c.525.1.72.474,1.228.169a2.494,2.494,0,0,1,1.694-.252,8.057,8.057,0,0,1,1.237-.028,2.787,2.787,0,0,0,.573.158c.252,0,.484-.11.75-.124.421-.022.653-.258,1-.36a2.289,2.289,0,0,1,.838.069c-.123-.59,1.147-.444,1.432-.384.413.086.96.6,1.353.21.068-.068.035-.281.111-.349a2.919,2.919,0,0,1,1.736-.43,1.063,1.063,0,0,1,.713.149,1.194,1.194,0,0,0,.97.1c.2-.109.224-.4.387-.531.279-.228.491-.062.8-.145.448-.118.692-.442,1.181-.491a1.634,1.634,0,0,1,1.187.283c.066.045.136.1.212.155a3.478,3.478,0,0,1,.736.6c.225.292.339.651.59.928a4.224,4.224,0,0,1,.436.652,2.323,2.323,0,0,0,.168.24c.291.358.609.072.962.27a3.588,3.588,0,0,1,.636.66c.156.167.453.4.395.666-.036.163-.314.261-.322.375-.027.35.783.374.5,1.017" transform="translate(-112.005 -206.398)" fill="#6a9b00"/>
    <path id="패스_7291" data-name="패스 7291" d="M18.607,255.472c-.291.425-1.3.367-1.7.428-.537.082-.958.4-1.477.5a8.513,8.513,0,0,0-1.586.143,3.071,3.071,0,0,1-1.288.41,7.837,7.837,0,0,0-1.476.154c-.9.166-1.779.505-2.681.623-.3.039-.721.086-.956-.167a.874.874,0,0,1-.773-.925c.058-.218.291-.258.377-.455s.047-.466.123-.682a3.894,3.894,0,0,1,.33-.6l.019-.034a.9.9,0,0,1,.577-.536c.392-.123.671.115.892-.285.179-.326.041-.69.5-.831a3.633,3.633,0,0,1,1.11.13c.063.15.225.462.4.533.254.1.414-.2.693-.043.052.028.1.251.209.317a.784.784,0,0,0,.388.041,7.928,7.928,0,0,0,1.018.082c.448-.071.56-.473,1.073-.179.444.254.859.077,1.291.257.375.157.361.15.744-.03.32-.15.294-.165.617-.028l.06.028c.237.113.335.228.648.171a1.414,1.414,0,0,0,.285-.107.3.3,0,0,1,.271.013,1.778,1.778,0,0,1,.349.573.552.552,0,0,1-.044.494" transform="translate(-5.647 -214.786)" fill="#6a9b00"/>
    <path id="패스_7292" data-name="패스 7292" d="M167.029,261.5c-.206.467-1.049.681-1.507.815-.538.158-.892-.185-1.433-.192a6.05,6.05,0,0,0-1.746.038c-.614.18-1.219.443-1.828.644-1.442.474-3.067.051-4.547-.213a31.4,31.4,0,0,1-3.812-.793c-1.268-.391-2.647-.2-3.891-.643-.864-.31-1.329-1.019-2.1-1.4a6.988,6.988,0,0,1-.839-.511,1.4,1.4,0,0,1,1.559-.134c.129.088.168.035.276.138.082.078.1.264.25.378a1.305,1.305,0,0,0,1.2.289c.361-.1.538-.355.865-.453.088-.026.287.075.324.056.2-.1.1-.316.209-.414.394-.346.6.009.83.243a2.678,2.678,0,0,0,1.054.606,9.835,9.835,0,0,0,1.339.089c.213.02.695.134.885.024.284-.164.1-.276.195-.522.128-.344.324-.865.747-.8a1.625,1.625,0,0,0,.323.2,1.893,1.893,0,0,0,.587.406c.127.041.271-.029.391.024.082.036.123.208.233.263.272.137.669.17.958.291.571.24.894-.057,1.487-.02a2.937,2.937,0,0,1,.575.2,6.645,6.645,0,0,0,.89.052c.97.116,2.315.178,1.479-1.1-.348-.532-.177-.677.4-1.041.319-.2.221-.243.616-.08.347.143.481.516.743.6a1.239,1.239,0,0,0,.945-.272,2.322,2.322,0,0,0,.168.24c.291.358.609.072.962.27a3.587,3.587,0,0,1,.636.66c.156.167.453.4.395.666-.036.163-.314.261-.322.375-.027.35.783.374.5,1.017" transform="translate(-123.284 -218.723)" fill="#487f00"/>
    <path id="패스_7293" data-name="패스 7293" d="M18.607,261.293c-.291.425-1.3.367-1.7.428-.537.082-.958.4-1.477.5a8.513,8.513,0,0,0-1.586.143,3.07,3.07,0,0,1-1.288.41,7.839,7.839,0,0,0-1.476.154c-.9.166-1.779.505-2.681.623-.3.039-.721.087-.956-.167a.874.874,0,0,1-.773-.925c.058-.218.291-.258.377-.455s.047-.466.123-.682a3.9,3.9,0,0,1,.33-.6l.019-.034a.586.586,0,0,0,.125.268A2.886,2.886,0,0,0,9,261.5c.114-.359.211-.581.67-.506-.016.108.032.246.012.353.149.008.316-.016.464.006.115.017.153.129.277.126A3.155,3.155,0,0,0,11,261.32c.055-.015.11.066.186.036.171-.068.159-.187.3-.281.513-.341.971-.005,1.5.2a1.906,1.906,0,0,0,1.145-.035,7.184,7.184,0,0,0,2.877-1.035.82.82,0,0,1,.092-.053.984.984,0,0,1,.933.064,1.177,1.177,0,0,1,.572.818,1.011,1.011,0,0,1,0,.263" transform="translate(-5.647 -220.607)" fill="#487f00"/>
    <path id="패스_7294" data-name="패스 7294" d="M48.054,263.588c0,.523-1.08.854-1.48.933a13.763,13.763,0,0,1-1.756.2c-.554.038-1.11.07-1.656.145-1.434.2-2.9.222-4.34.286-1.393.062-2.886-.224-4.235.21-.5.16-.972.314-1.483.429-.492.11-.992.1-1.48.217a8.078,8.078,0,0,1-1.721.078c-1.545.013-3.076-.115-4.624-.055-1.367.054-2.717.174-4.086.174a34.61,34.61,0,0,1-6.546-.4c-.658-.128-1.032-.33-1.1-.978-.082-.735-.179-1.088-1.041-1.338a3.534,3.534,0,0,0-.745-.083c-.8-.035-1.83-.035-2.116-.544-.734-1.308,2.888-1.6,3.451-1.716,1.47-.308,3.007-.164,4.487-.418.675-.116,1.066-.657,1.6-1.021a6.977,6.977,0,0,1,2.352-.644,10.957,10.957,0,0,1,2.4-.121c1.053,0,2.05.177,3.1.255.851.063,1.7.041,2.552.141.528.062,2.373.014,2.633.535.122.246-.2.518-.166.776.056.464.646.621,1.026.727a21.667,21.667,0,0,0,3.893.571c1.437.13,2.873.275,4.315.35a36.069,36.069,0,0,1,4.436.333c.488.086,2.34.238,2.338.96" transform="translate(-8.096 -219.651)" fill="#16b0d4"/>
    <path id="패스_7295" data-name="패스 7295" d="M48.054,263.588c0,.523-1.08.854-1.48.933a13.763,13.763,0,0,1-1.756.2c-.33-1.507-3.094-1.358-4.286-1.4a71.6,71.6,0,0,1-8.305-.406,7.978,7.978,0,0,1-1.787-.248c-.3-.355.13-.5.3-.853.562-1.154-.627-1.145-1.692-1.3a26.585,26.585,0,0,0-4.429-.2,2.19,2.19,0,0,0-1.295.224c-.249.179-.187.423-.321.548-1.608,1.49-5.28,1.239-7.388,1.259a16.234,16.234,0,0,0-3.021.061c-.294.06-1.064.206-1.031.614a.683.683,0,0,0,.192.377c-.8-.035-1.83-.035-2.116-.544-.734-1.308,2.888-1.6,3.451-1.716,1.47-.308,3.007-.164,4.487-.418.675-.116,1.066-.657,1.6-1.021a6.977,6.977,0,0,1,2.352-.644,10.957,10.957,0,0,1,2.4-.121c1.053,0,2.05.177,3.1.255.851.063,1.7.041,2.552.141.528.062,2.373.014,2.633.535.122.246-.2.518-.166.776.056.464.646.621,1.026.727a21.667,21.667,0,0,0,3.893.571c1.437.13,2.873.275,4.315.35a36.069,36.069,0,0,1,4.436.333c.488.086,2.34.238,2.338.96" transform="translate(-8.096 -219.651)" fill="#5dd2ed"/>
    <path id="패스_7296" data-name="패스 7296" d="M13.651,133.986a4.209,4.209,0,0,1-.653-.14,10.274,10.274,0,0,0,1.007-.8,5.971,5.971,0,0,0,.774-1.108,6.362,6.362,0,0,1-1.376,0,3.9,3.9,0,0,0-1.463.216,3.587,3.587,0,0,0,.024-.78,5.7,5.7,0,0,0-1.5.714,2.887,2.887,0,0,1-1.663.446,4.523,4.523,0,0,1,.413-1.31c.29-.5,1.1-.976,1.45-1.435a3.726,3.726,0,0,0,.456-1.469,1.177,1.177,0,0,1-1.136.1c-.225-.474.306-1.679.306-1.679-.824-.158-.3-.954-.3-.954-.473-.364-.192-1.305-.192-1.305s-.416.89-1.011.847c0,0-.139.941-.86.511,0,0-.4,1.253-.888,1.458a1.177,1.177,0,0,1-.779-.833,3.729,3.729,0,0,0-.636,1.4,19.336,19.336,0,0,1,.129,2.036,4.527,4.527,0,0,1-.562,1.253,2.886,2.886,0,0,1-.945-1.438,5.7,5.7,0,0,0-.642-1.527,3.593,3.593,0,0,0-.5.6,3.9,3.9,0,0,0-.949-1.134,6.357,6.357,0,0,1-1.027-.915,5.977,5.977,0,0,0-.159,1.342,10.281,10.281,0,0,0,.22,1.267,4.2,4.2,0,0,1-.581-.329,4.077,4.077,0,0,0,.5,1.5,1.551,1.551,0,0,1-.909.009,4.478,4.478,0,0,0,1.109,1.977c.727.564,1.049.808,1.049.808a11.834,11.834,0,0,1-1.818.489,4.2,4.2,0,0,0,2.032,1.517s-.026.076-.306.1c0,0,1.456.742,2.215.483a1.959,1.959,0,0,1,1.037-.172s.265.12.66.818,1.975,1.112,1.975,1.112c-.191-.207-.159-.281-.159-.281a4.2,4.2,0,0,0,2.527.218,11.834,11.834,0,0,1-1.033-1.574s.4.032,1.321.094a4.48,4.48,0,0,0,2.142-.739,1.553,1.553,0,0,1-.673-.611,4.078,4.078,0,0,0,1.373-.788" transform="translate(-0.17 -105.602)" fill="#ff8934"/>
    <path id="패스_7297" data-name="패스 7297" d="M6.46,186.872c-.1,0-.2,0-.3,0s-.2-.006-.3-.014a8.663,8.663,0,0,1-1.184-.156l-.146-.029-.145-.035c-.1-.024-.194-.045-.289-.071-.191-.057-.382-.107-.568-.178-.093-.034-.188-.064-.279-.1l-.274-.114c-.045-.02-.092-.037-.136-.059l-.133-.065-.266-.131a4.2,4.2,0,0,0,2.032,1.517s-.026.076-.306.1c0,0,1.456.742,2.215.483a2.747,2.747,0,0,1,.913-.185q-.148-.5-.324-.985c-.172.015-.34.022-.51.024" transform="translate(-2.07 -157.71)" fill="#f9681e"/>
    <path id="패스_7298" data-name="패스 7298" d="M21.141,139.3v.005l0,.022.006.043c0,.029.008.058.011.087.008.058.014.116.02.174.012.117.023.234.029.351a3.8,3.8,0,0,1-.018.707,4.991,4.991,0,0,1-.125.7c-.027.116-.062.229-.1.342-.017.057-.039.112-.059.168l-.042.111.162.221a12.353,12.353,0,0,1,1.25,2.2c.174.384.332.775.479,1.17.11.3.215.6.31.9l1.325-3.424.408-1.054a9.9,9.9,0,0,1-.409-1.061c-.06-.183-.115-.368-.169-.553l-.074-.279c-.025-.093-.045-.187-.067-.281-.086-.375-.162-.753-.21-1.135-.012-.1-.026-.191-.035-.286s-.015-.192-.023-.288-.013-.192-.015-.288-.005-.192-.006-.288a3.725,3.725,0,0,0-.636,1.4,19.291,19.291,0,0,1,.129,2.036,4.525,4.525,0,0,1-.562,1.253,2.888,2.888,0,0,1-.945-1.439,5.762,5.762,0,0,0-.635-1.516s0,0,0,.005" transform="translate(-17.703 -116.691)" fill="#f9681e"/>
    <path id="패스_7299" data-name="패스 7299" d="M1.017,143.807q.226.121.462.22c.157.067.316.129.478.182a8.888,8.888,0,0,0,.987.262c.294.06.593.111.889.147-.152-.261-.314-.516-.489-.762l-.363-.515c-.114-.177-.233-.352-.339-.535s-.212-.364-.315-.548-.2-.372-.289-.561c-.186-.377-.361-.76-.514-1.152a10.542,10.542,0,0,1-.4-1.2,5.98,5.98,0,0,0-.159,1.342,10.286,10.286,0,0,0,.22,1.267,4.222,4.222,0,0,1-.581-.33,4.077,4.077,0,0,0,.5,1.5,1.553,1.553,0,0,1-.909.009s.015.057.046.152c.108.088.217.174.333.251a5.074,5.074,0,0,0,.439.265" transform="translate(-0.17 -118.209)" fill="#f9681e"/>
    <path id="패스_7300" data-name="패스 7300" d="M47.338,189.089c-.163-.061-.324-.127-.482-.2s-.313-.153-.464-.239a5.763,5.763,0,0,1-.849-.577c-.441.152-.874.33-1.3.523q-.535.247-1.058.524c.1.105.2.209.307.31.071.066.142.134.215.2s.145.13.221.192.149.126.226.186l.232.179.238.171c.079.058.162.109.243.164l.122.081.126.076c.084.05.167.1.253.15.173.092.343.191.522.272a9.044,9.044,0,0,0,1.094.444,11.842,11.842,0,0,1-1.033-1.574s.4.032,1.321.094a4.091,4.091,0,0,0,1.987-.644,4.011,4.011,0,0,1-.916-.055,5.368,5.368,0,0,1-1.005-.276" transform="translate(-36.634 -159.542)" fill="#f9681e"/>
    <path id="패스_7301" data-name="패스 7301" d="M69.806,169.947l0,0-.017.014-.033.029-.065.059c-.043.04-.082.083-.123.125-.078.087-.153.176-.223.27s-.137.188-.2.283l-.1.144-.094.145a5.857,5.857,0,0,0-.335.605c-.078.158-.145.321-.209.485l.152-.032c.2-.052.4-.1.6-.16s.4-.122.6-.186.394-.137.588-.214c.39-.149.774-.313,1.155-.484s.761-.347,1.138-.532a6.361,6.361,0,0,1-1.376,0,3.9,3.9,0,0,0-1.463.216,3.33,3.33,0,0,0,.024-.764l0,0c-.006,0-.008,0-.009,0" transform="translate(-58.025 -144.165)" fill="#f9681e"/>
    <path id="패스_7302" data-name="패스 7302" d="M49.883,126.428l-.705,1.885-.933,2.492c.116-.054.231-.112.345-.17.169-.088.337-.178.5-.271q.5-.281.974-.6l.119-.079.117-.082c.078-.055.157-.109.234-.165.152-.115.307-.226.456-.346.074-.06.152-.116.225-.177s.148-.121.222-.181c.037-.031.075-.06.111-.091l.109-.094c.073-.062.146-.125.22-.186a1.177,1.177,0,0,1-1.136.1c-.225-.474.306-1.679.306-1.679-.824-.158-.3-.954-.3-.954-.449-.345-.219-1.208-.194-1.3-.1.318-.209.632-.321.946s-.232.629-.35.944" transform="translate(-40.926 -105.646)" fill="#f9681e"/>
    <path id="패스_7303" data-name="패스 7303" d="M11.727,135.341c-.166-.04-.33-.088-.491-.143s-.321-.114-.478-.181a8.9,8.9,0,0,1-.911-.461c-.26-.15-.517-.311-.762-.482.287-.094.578-.177.872-.244l.614-.144c.2-.056.408-.108.608-.174s.4-.131.6-.2.4-.146.589-.227c.39-.158.775-.328,1.15-.518a10.569,10.569,0,0,0,1.091-.629c-.377.184-.756.361-1.138.532s-.765.335-1.155.484c-.194.077-.391.144-.588.214s-.4.131-.6.187-.4.108-.6.16l-.152.032c.063-.164.13-.327.209-.485a5.871,5.871,0,0,1,.335-.605l.095-.145.1-.143c.066-.095.133-.191.2-.283s.145-.183.223-.27c.041-.042.08-.085.123-.125l.065-.059.033-.029.017-.014,0,0s0,0,.009,0l0,0,.006.005.016.016.008.008.012.014.026.03-.139-.18.022.034.01.016.006.01.012.019c0,.006,0,.008.006.012v0s0,.006,0,.007l0,0-.017.014-.034.028-.066.058c-.044.038-.087.078-.131.117-.086.079-.172.159-.255.243a3.8,3.8,0,0,0-.457.54,4.975,4.975,0,0,0-.371.6c-.057.1-.105.212-.154.321-.025.054-.045.11-.067.165l-.042.111-.267.057a12.349,12.349,0,0,0-2.4.812c-.385.171-.763.358-1.136.555-.28.149-.557.3-.83.466L6.84,132.04l.4-1.059a9.883,9.883,0,0,0,1.01-.521c.167-.1.33-.2.493-.3L8.982,130c.08-.053.158-.11.237-.165.314-.223.622-.455.912-.708.073-.063.146-.125.216-.191s.139-.133.209-.2.137-.134.2-.205.132-.14.2-.211c-.074.061-.147.124-.22.186l-.109.094c-.036.032-.074.061-.111.091-.074.061-.149.12-.222.181s-.151.117-.225.177c-.149.12-.3.231-.456.346-.077.057-.156.11-.234.165l-.117.082-.119.079q-.476.317-.974.6c-.166.094-.334.183-.5.271-.114.058-.23.115-.345.17l.932-2.492.705-1.885c.117-.314.236-.628.35-.944s.221-.628.321-.946l0-.008v0c-.137.306-.266.615-.391.926s-.245.625-.366.937l-.727,1.877-.96,2.482c-.05-.118-.1-.238-.145-.357-.067-.178-.133-.357-.2-.537q-.185-.541-.329-1.095l-.037-.138-.033-.139c-.022-.093-.045-.185-.065-.279-.037-.187-.079-.373-.111-.562-.016-.094-.036-.187-.051-.282s-.03-.189-.046-.283c-.007-.047-.017-.094-.022-.142s-.012-.095-.019-.142c-.014-.095-.026-.19-.041-.285,0,.1,0,.192.006.288s.006.192.015.288.014.192.023.287.022.191.035.286c.049.382.125.76.21,1.135.022.094.043.188.067.281l.074.279c.054.185.108.37.169.553A9.888,9.888,0,0,0,7.1,130.93l-.408,1.054-1.325,3.424c-.095-.3-.2-.6-.31-.9-.147-.395-.305-.786-.479-1.17a12.359,12.359,0,0,0-1.25-2.2l-.162-.22.042-.111c.02-.056.043-.111.059-.168.035-.113.071-.226.1-.342a5,5,0,0,0,.125-.7,3.794,3.794,0,0,0,.018-.707c-.006-.118-.018-.235-.029-.351-.006-.058-.012-.116-.02-.174,0-.029-.007-.058-.011-.087l-.006-.043,0-.022v-.005s0,0,0-.005l0,0,.013-.005.022-.007.011,0,.018,0,.039-.01-.224.042.04-.005.019,0h.047c.008,0,.009,0,.009,0v.005l0,.022.005.044c0,.029.007.058.009.087.005.058.006.117.009.175,0,.117,0,.233-.013.35s-.023.232-.036.347l-.022.172-.026.171a5.868,5.868,0,0,1-.152.675c-.046.17-.1.336-.167.5l-.092-.125c-.116-.172-.236-.342-.344-.521s-.216-.356-.321-.536-.2-.364-.3-.551c-.192-.37-.37-.749-.541-1.13s-.337-.765-.5-1.154a10.572,10.572,0,0,0,.4,1.2c.153.391.328.774.514,1.151.091.19.191.375.289.561s.2.369.315.548.224.357.339.534l.363.515c.175.246.337.5.489.762-.3-.036-.6-.086-.889-.147a8.914,8.914,0,0,1-.987-.262c-.162-.054-.321-.115-.478-.182S1,131.28.848,131.2a5.05,5.05,0,0,1-.439-.265c-.115-.077-.225-.162-.333-.251L0,130.621c.027.029.055.057.083.086a4.01,4.01,0,0,0,.721.568,5.349,5.349,0,0,0,.934.462c.162.063.327.12.493.171s.335.094.506.13a5.761,5.761,0,0,0,1.018.133c.228.407.433.828.623,1.255q.236.54.442,1.095c-.143.014-.29.022-.435.027-.1,0-.195.006-.292.006s-.2,0-.293,0-.2-.005-.293-.012l-.292-.02-.292-.031c-.1-.009-.194-.027-.291-.039l-.145-.021-.144-.027c-.1-.019-.193-.035-.289-.055-.19-.046-.383-.086-.571-.144a9.057,9.057,0,0,1-1.112-.4l.266.131L.769,134c.044.023.091.039.136.059l.274.114c.092.038.186.067.279.1.186.071.378.121.568.178.1.026.193.047.289.072l.145.035.146.029a8.663,8.663,0,0,0,1.184.156c.1.008.2.009.3.014s.2,0,.3,0c.17,0,.338-.009.51-.024q.176.489.325.985l.009.029-.066.171-.186.484-.257.67-.286.743-.27.7-.213.554c-.037.1-.069.2-.112.291-.021.048-.066.152.031.143a.5.5,0,0,0,.115-.033c.095-.034.117-.165.15-.251l.1-.253.258-.683.3-.8.292-.774.228-.605.109-.288.025-.015q.44-.272.9-.52c.119.126.24.242.365.357.075.066.15.132.226.2s.153.128.232.188a8.681,8.681,0,0,0,.988.67l.128.076.132.07c.088.046.175.095.264.139.18.085.357.174.542.245.092.037.182.078.276.11l.281.1c.047.015.093.034.141.046l.143.04.286.079a9.062,9.062,0,0,1-1.094-.444c-.179-.082-.349-.18-.522-.272-.085-.048-.168-.1-.253-.15l-.126-.076-.122-.081c-.081-.055-.164-.106-.243-.164l-.238-.171-.232-.179c-.077-.06-.151-.125-.226-.186s-.147-.128-.221-.192-.143-.132-.215-.2c-.1-.1-.209-.2-.307-.31q.522-.277,1.058-.524c.426-.193.859-.371,1.3-.523a5.771,5.771,0,0,0,.849.577c.151.086.307.164.464.239s.319.139.482.2a5.351,5.351,0,0,0,1,.276,4,4,0,0,0,.916.055l.119-.009-.1,0c-.139-.005-.278-.015-.415-.034a5.09,5.09,0,0,1-.5-.094" transform="translate(0 -105.602)" fill="#b23b0d"/>
    <path id="패스_7304" data-name="패스 7304" d="M148.1,42.25a13.538,13.538,0,0,1-2.42,3.794,14.4,14.4,0,0,1-1.636,1.453c-.61.475-1.211.984-1.842,1.428-1.16.817-2.3,1.656-3.385,2.572a14.907,14.907,0,0,0-2.8,2.789,5.716,5.716,0,0,0-.968,1.933,17.8,17.8,0,0,0-.089,2.7,24.335,24.335,0,0,0,.048,3.237,21.068,21.068,0,0,0,.479,3.476,3.325,3.325,0,0,1-1.152.247,9.55,9.55,0,0,1-.989-.013c.041-.685.235-1.37.3-2.057a46.127,46.127,0,0,0,.1-4.686c-.016-1.656.21-3.342.241-5,.008-.418.024-.832.044-1.246a5.1,5.1,0,0,0-.577-.818,3.105,3.105,0,0,0-.927-.686,9.124,9.124,0,0,0-1.079-.338,7.912,7.912,0,0,0-1.955-.426c-.515-.02-1.032-.008-1.549-.015a8.877,8.877,0,0,1-2.825-.418,10.642,10.642,0,0,1-2.393-1.189c-.005,0,0-.014.005-.012.93.306,1.834.687,2.793.908a13.286,13.286,0,0,0,3.116.169,14.264,14.264,0,0,0,1.668.018l.13-.014c-.306-.16-.612-.322-.909-.5a16.841,16.841,0,0,1-1.86-1.315A15.879,15.879,0,0,1,124.6,45a33.437,33.437,0,0,1-2.239-3.827c-.37-.72-.719-1.451-1.084-2.174a3.055,3.055,0,0,1-.518-1.577,0,0,0,1,1,.007,0,2.139,2.139,0,0,0,.517,1.142c.231.342.428.708.638,1.065q.664,1.129,1.345,2.246c.4.653.8,1.3,1.248,1.926l.11.15c.209.281.433.549.665.809-.027-.1-.051-.2-.072-.307a19.43,19.43,0,0,1-.192-2.153,18.992,18.992,0,0,0-.4-2.436,17.516,17.516,0,0,1-.541-2.085c0-.011.017-.013.02,0a20.2,20.2,0,0,0,.722,2.167,20.461,20.461,0,0,1,.518,2.125c.119.71.179,1.429.313,2.137a6.325,6.325,0,0,0,.315,1.091,2.894,2.894,0,0,1,.09.281,17.412,17.412,0,0,0,3.461,2.853c.7.411,1.414.8,2.107,1.217a11.06,11.06,0,0,0,1.009.627,3.3,3.3,0,0,1,.963.6c.06.059.25.169.358.269a.2.2,0,0,1,.078.112c-.021-.3-.05-.6-.066-.9-.031-.572-.067-1.142-.083-1.716-.033-1.186-.106-2.367-.159-3.553-.049-1.107-.162-2.208-.21-3.316-.016-.04-.031-.08-.049-.12a6.693,6.693,0,0,0-.929-1.544c-.806-1-1.589-2-2.309-3.07a17.381,17.381,0,0,1-1.007-1.638,15.751,15.751,0,0,1-.7-1.722,31.24,31.24,0,0,1-1.135-3.55.007.007,0,0,1,.012,0c.595,1.126.982,2.364,1.487,3.534a21.126,21.126,0,0,0,1.951,3.415c.408.6.829,1.2,1.288,1.763.375.463.776.9,1.12,1.392a4.355,4.355,0,0,1,.241.386c-.015-.841-.01-1.684.027-2.526.054-1.187.13-2.384.227-3.569s.155-2.365.223-3.549a15.727,15.727,0,0,1,.569-3.3,13.264,13.264,0,0,0,.678-3.113c0-.014.024-.019.026,0a6.691,6.691,0,0,1,.021,1.4h0c-.051.631-.166,1.261-.279,1.884a37.6,37.6,0,0,0-.4,3.92q-.262,3.563-.436,7.131-.014.276-.019.552c.054.727.124,1.452.193,2.176v0c.058.594.115,1.186.165,1.781h0c.008.1.017.2.025.295.125-.2.256-.392.382-.578a31.865,31.865,0,0,1,2.143-2.911c.835-.97,1.683-1.939,2.469-2.95a23.146,23.146,0,0,0,2.047-2.973,13.95,13.95,0,0,1,1.422-2.579c.005-.006.015,0,.01.008a17.905,17.905,0,0,0-1.359,3.128,24.081,24.081,0,0,1-4.013,5.674,30.4,30.4,0,0,0-2.1,2.824,6.8,6.8,0,0,0-.892,1.469l-.028.079c.018.316.032.634.04.951,0,.131.006.262.009.393a37.5,37.5,0,0,1,.322,4.038c.015.82.006,1.644-.036,2.465,0,.032,0,.063,0,.1.01.058.02.116.028.175.046.339.072.683.085,1.029h0v.022a5.662,5.662,0,0,1,.646-.961,6.668,6.668,0,0,1,1.63-1.343c.017-.045.035-.091.054-.136.18-.409.344-.826.512-1.24.407-1,.789-2.017,1.184-3.025a17.494,17.494,0,0,1,1.422-2.724,10.385,10.385,0,0,1,1.352-2.057c.019-.019.044.008.027.028a10.489,10.489,0,0,0-1.295,2.455,30.12,30.12,0,0,0-1.19,3.016c-.339.967-.664,1.94-1.057,2.888.176-.131.353-.26.53-.389h0c.361-.261.724-.519,1.085-.781.6-.432,1.16-.906,1.756-1.34.639-.466,1.358-.817,2.014-1.261a14.585,14.585,0,0,0,1.874-1.474,12.889,12.889,0,0,0,2.5-3.471c.006-.011.022,0,.016.01" transform="translate(-102.439 -20.821)" fill="#603813"/>
    <path id="패스_7305" data-name="패스 7305" d="M223.085,141.179a13.538,13.538,0,0,1-2.419,3.794,14.4,14.4,0,0,1-1.636,1.453c-.61.475-1.211.984-1.842,1.428-1.16.817-2.3,1.656-3.385,2.572a14.907,14.907,0,0,0-2.8,2.789,5.716,5.716,0,0,0-.969,1.933,17.792,17.792,0,0,0-.089,2.7,24.335,24.335,0,0,0,.048,3.237,21.069,21.069,0,0,0,.479,3.476,3.325,3.325,0,0,1-1.152.247,6.2,6.2,0,0,0,.107-.981c0-.664-.012-1.33-.018-2a16.272,16.272,0,0,0-.091-1.738,5.5,5.5,0,0,1-.062-2.226c.042-.693.093-1.394.09-2.087,0-.526-.22-1.119.095-1.612.329-.515.932-.863,1.287-1.383a5.453,5.453,0,0,1,1.311-1.535,9.051,9.051,0,0,0,1.692-1.612l.108-.134h0c.361-.261.724-.519,1.085-.781.6-.432,1.16-.906,1.756-1.34.639-.466,1.358-.817,2.014-1.261a14.588,14.588,0,0,0,1.874-1.474,12.889,12.889,0,0,0,2.5-3.471c.006-.011.022,0,.016.01" transform="translate(-177.424 -119.749)" fill="#42210b"/>
    <path id="패스_7306" data-name="패스 7306" d="M218.8,71.739a17.905,17.905,0,0,0-1.359,3.128,24.081,24.081,0,0,1-4.013,5.674,30.406,30.406,0,0,0-2.1,2.824,6.8,6.8,0,0,0-.892,1.469l-.028.079c.018.316.032.634.04.951,0,.131.006.262.009.393a37.509,37.509,0,0,1,.322,4.039c.015.82.006,1.644-.036,2.465,0,.032,0,.063,0,.1.01.058.02.116.028.175.046.339.072.683.085,1.029h0c-.11.231-.25.508-.451.286-.234-.258,0-1.478.013-1.833.064-1.838-.341-3.572-.277-5.424a23,23,0,0,1,.165-3.663c.009.1.017.2.025.295.125-.2.256-.392.382-.578a31.892,31.892,0,0,1,2.143-2.911c.835-.97,1.683-1.939,2.468-2.95a23.127,23.127,0,0,0,2.047-2.973,13.946,13.946,0,0,1,1.422-2.579c.005-.006.015,0,.01.008" transform="translate(-178.257 -60.847)" fill="#42210b"/>
    <path id="패스_7307" data-name="패스 7307" d="M207.519,46.775q-.014.276-.019.552c.054.727.124,1.452.193,2.176a10.217,10.217,0,0,1-.439-3.38c.069-2.133.328-4.2.216-6.316a8.514,8.514,0,0,1,.394-3.147c.286-.924.52-1.874.771-2.82-.051.631-.166,1.261-.279,1.884a37.517,37.517,0,0,0-.4,3.92q-.262,3.563-.436,7.131" transform="translate(-175.808 -28.707)" fill="#42210b"/>
    <path id="패스_7308" data-name="패스 7308" d="M152.688,125.344a13.707,13.707,0,0,1-2.934-1.313,36.724,36.724,0,0,1-3.371-2.4,13.3,13.3,0,0,1-1.454-1.145,10.312,10.312,0,0,1-1.065-1.471,7.917,7.917,0,0,1-.6-1.131c.209.281.433.55.665.809-.027-.1-.051-.2-.072-.307a19.346,19.346,0,0,1-.192-2.153,19.014,19.014,0,0,0-.4-2.436,17.494,17.494,0,0,1-.54-2.085c0-.011.017-.013.02,0a20.234,20.234,0,0,0,.722,2.167,20.419,20.419,0,0,1,.518,2.125c.119.71.179,1.43.313,2.137a6.327,6.327,0,0,0,.315,1.091,2.881,2.881,0,0,1,.09.281,17.41,17.41,0,0,0,3.461,2.853c.7.411,1.413.8,2.107,1.217a11.035,11.035,0,0,0,1.009.627,3.3,3.3,0,0,1,.963.6c.06.059.25.169.358.269a2.736,2.736,0,0,0,.084.268" transform="translate(-121.075 -94.757)" fill="#42210b"/>
    <path id="패스_7309" data-name="패스 7309" d="M107.308,85.688c-.593.352-1.9.225-2.119,1.091-.121.482.172.4.511.46.154.029,1.387.523,1.4.51-.465.435-1.4.418-1.49,1.278-.473.071-1.26-.38-1.1.4.168.816.987,1.39,1.334,2.094-.265.317-.615.158-.835.414-.158.184-.037.54-.157.755-.408.73-.753-.134-1.183-.036-.367.084-.109.564-.113.819-.011.568-1,1.768-1.615,1.273-.22-.177-.058-1.339-.807-.772-.417.316-.137,1.426-.893,1.46-.619.027-.492-1.008-1.043-1.1-.512-.088-.6.588-.954.716-.088.032-.145-.148-.215-.131a4.437,4.437,0,0,1-.474.163c-.485.058-.664-.158-.654-.585s.351-.91-.215-.99c-.437-.062-.919.487-1.311.037-.621-.715,1.334-1.421.654-2.08-.311-.3-1.034.141-1.351-.349-.478-.741.482-1.467.772-1.993.17-.308-.039-.3.333-.581a3.054,3.054,0,0,1,1.545-.567c.466-.05,1.4.064,1.5-.581a.756.756,0,0,0-.052-.376.8.8,0,0,0-.415-.463c-.394-.149-.627.244-1.017.214-.235-.019-.184-.194-.384-.339-.384-.28-.724.071-1.147.1-.231.016-.388-.287-.724-.069s-.332.787-.751,1.007c-.366.194-.583.025-.635-.309s.266-.871-.282-.72c-.375.1-.541,1.005-.992.824-.772-.311,1.211-1.96-.313-1.519-.375.109-1.1.337-.849-.309.2-.517,1.066-.449,1.084-1.086-.467-.105-2.009.394-1.85-.528.136-.79,1.253-.9,1.85-.929a12.917,12.917,0,0,1,1.32-.21c.212.013.632.325.465-.217-.131-.429-.558-.293-.807-.491s-.2-.386.112-.667c.372-.336.742-.071,1.078-.266a1.692,1.692,0,0,0,.534-.928c.224-1.37-1.164-1.044-1.987-1.192-.46-.083-.632-.4-.408-.813.364-.679,2.4-.892,1.171-1.643-.373-.229-1.144-.511-1.107-1.064.071-1.08,1.275.135,1.7.076.665-.092.244-.7.038-1.021a2.7,2.7,0,0,1-.517-1.924c.142-.68,1.032-1.147,1.476-.482.4.6.219,1.811,1.319,1.469.307-.1.393-.4.535-.005.048.136-.138.349-.065.48.083.15.12.031.242.109s.214-.038.351.11c.222.24-.056.814.4.7.343-.085.29-.609.755-.283.522.367.2.95.3,1.452.111.527.411.421.752.243.275-.144.578-.336.831-.28,1.08.242-.545,1.455-.294,1.944.269.526.69-.317.865-.392.365-.154,1.2.28,1.482.48,1.109.783-.259,1.47-.938,1.935-.282.193-.768.706-.244.975.408.209.8-.418,1.084-.613.833-.567,1.163.089.453.667.236,0,.831-.041.955.215.224.459-.87,1.223.13,1.331.553.06,1.083-.257,1.6.041.692.4.3.928-.177,1.337.475.19,1.11-.142,1.625.174a.938.938,0,0,1-.076,1.546" transform="translate(-76.761 -60.848)" fill="#ff8934"/>
    <path id="패스_7310" data-name="패스 7310" d="M130,109.773c-.593.352-1.9.225-2.119,1.092-.121.482.172.4.511.46.154.029,1.387.523,1.4.51-.465.435-1.4.418-1.49,1.278-.473.071-1.26-.38-1.1.4.168.816.987,1.39,1.334,2.094-.265.317-.615.158-.835.414-.158.184-.037.54-.157.755-.408.73-.753-.134-1.183-.036-.367.084-.109.564-.113.819-.011.568-1,1.768-1.615,1.273-.22-.177-.058-1.339-.807-.772-.417.316-.137,1.426-.893,1.46-.619.027-.492-1.008-1.043-1.1-.512-.088-.6.588-.954.716-.088.032-.145-.148-.215-.131a4.437,4.437,0,0,1-.474.163c-.485.058-.664-.158-.654-.585s.351-.91-.215-.99c-.437-.062-.919.487-1.311.037-.621-.715,1.334-1.421.654-2.08-.311-.3-1.034.141-1.351-.349-.478-.741.482-1.467.772-1.993.17-.308-.039-.3.333-.581a3.054,3.054,0,0,1,1.545-.567c.466-.05,1.4.064,1.5-.581a.756.756,0,0,0-.052-.376c.466,0,.933.122.921.63-.023.991-1.732,1.229-2.339,1.742a1.145,1.145,0,0,0,.008,1.727c.787.647,1-.81,1.636-.782.435.019.193.9.518,1.047.13.06.416-.115.556-.127.253-.019.523.194.725.169.644-.081.624-1.319.416-1.724.5-.439,1.069.427,1.42-.1.545-.813-1.421-1.418-1.253-2.224.194-.931,1.922.35,2.4-.335a.593.593,0,0,0-.2-.868c-.443-.311-.734-.334-.15-.743.233-.163.816-.389.361-.669-.232-.142-1.225.181-1.2-.286.018-.326.919-.663.329-1.011-.536-.315-1.624.65-1.946.235-.216-.278.395-.639.261-.9s-.561.119-.614-.283c-.05-.381,1.352-1.112.358-1.321-.46-.1-.829.463-1.311.257a1,1,0,0,1-.494-.785c-.187-1.243.869-.829,1.643-.965,1.279-.225.076-1.082-.507-1.256-.495-.147-1.4-.314-1.462-.965-.068-.775.76-.787,1.16-1.159.275-.144.578-.336.831-.28,1.08.242-.545,1.455-.294,1.944.269.526.69-.317.865-.392.365-.154,1.2.28,1.482.48,1.109.783-.259,1.47-.938,1.935-.282.193-.768.706-.244.975.408.209.8-.418,1.084-.613.833-.567,1.163.089.453.667.236,0,.831-.041.955.215.224.459-.87,1.223.13,1.331.553.06,1.083-.257,1.6.041.692.4.3.928-.177,1.337.475.19,1.11-.142,1.625.174a.938.938,0,0,1-.076,1.546" transform="translate(-99.453 -84.933)" fill="#f9681e"/>
    <path id="패스_7311" data-name="패스 7311" d="M190.671,125.237c-.353.131-.87-.05-.964.489-.073.412.319.5.443.805.213.526-.535.732-.913.773s-.3-.189-.6-.339c-.635-.308-1.264.3-1.428.885-.129.462.286.49.547.745-.143.176-.453.256-.649.388a2.894,2.894,0,0,0,1.036.473c.192.065.465.036.63.149a.716.716,0,0,1,.2.837c-.537.872-2.6-1.246-3.079.174.314.293.98.1,1.233.452a.648.648,0,0,1-.181.837c-.3.179-.229-.09-.485-.088-.171,0-.251.164-.4.228a.661.661,0,0,1-.731-.124,3.417,3.417,0,0,1-.686-.678c-.118-.153-.189-.4-.416-.407-.426-.013-.5.541-.414.827.062.2.609.776.234.891-.445.136-.59-.856-.734-1.089-.223.115-.907-.754-1.162-.893a.93.93,0,0,0-1.211.279c-.19.278-.071.657-.283.944a1.292,1.292,0,0,1-.658.406c-.782.248-.494-.38-.492-.937,0-.419-.213-.529-.569-.257-.333.253-.272.839-.64,1.024-.5.251-.376-1.051-.319-1.3.112-.491.529-1.085.115-1.56-.3-.34-.586-.01-.8.252-.118.146-.367.591-.581.576-.32-.023-.219-.5-.194-.7.038-.309.233-1.217-.434-.816-.539.323-.272,1-.356,1.474-.169.016-.487-.116-.625,0-.172.146-.045.636-.13.844-.247.6-.418.362-.634.062-.238-.331-.438-.167-.651.11a2.575,2.575,0,0,1-.688.712c-.458.3-.846.346-.781-.314.052-.519.853-1.258.693-1.764-.125-.4-.535-.125-.776.048-.1.074-.219.267-.384.239-.2-.033-.1-.143-.205-.279-.3-.382-.58-.178-1.054-.076-.077-.17.041-.387.135-.548a.9.9,0,0,1-.877.218c-.512-.316.6-.733.485-1.068-.065-.194-.6-.028-.738,0-.22.044-.58.211-.774.039s-.077-.543.121-.671c-.723.071-.484-.466,0-.733.26-.144.949-.384,1.013-.739a.188.188,0,0,0-.109-.232,1.332,1.332,0,0,0-.7.045c-.675.171-1.773,1.046-2.4.44-.6-.585-.013-1.016.477-1.321-.116-.437-.715-.649-.142-.931a.843.843,0,0,0,.415-.312c.133-.232-.108-.529,0-.68.139-.2.919.259,1.071.335.253.125.78.493,1.049.177a.286.286,0,0,0-.125-.467c.248-.06.61.006.5-.377-.085-.3-.611-.468-.2-.858.46-.435.834.161,1.16.41.736.562.388-.643.975-.673.268-.013.351.392.587.216.2-.146.092-.612.09-.806,0-.244.1-.83.383-.941.419-.163.456,1.023.53,1.249.057.17.159.449.331.535.225.112.324-.1.5-.083.33.041.184.529.477.6.144.035.214-.15.3-.14.131.015.189.146.316.139a2.385,2.385,0,0,0,.43-.205c.3-.255.372-.583.815-.718.186-.057.5-.116.659.017s.1.405.226.56a.754.754,0,0,0,.326-.367c.041-.088.036-.388.085-.441.119-.127.605-.106.772-.043.249.095.2.294.45.121.143-.1.2-.493.271-.645a1.824,1.824,0,0,1,.532-.67c.367-.276,1.033-.487,1.183.066.066.241-.054.652.175.835.212.169.3-.077.556,0,.171.052.181.49.481.163a2.532,2.532,0,0,1,.89-.531c.051.414,0,.609.454.323a3.011,3.011,0,0,0,.781-.6c.1-.153.088-.323.176-.489.13-.242.878-.846,1.149-.679.308.19-.154.738-.144,1.063a.217.217,0,0,0,.052.144c.368.419.808-.444.9-.666a2.884,2.884,0,0,1,1.017-1.287c.273-.2,1-.809.98-.143-.01.466-.868,1.336-.654,1.777.078.162.226.023.331.139.148.164-.07.185-.029.37.067.307.522.067.8.16.4-.088,2.166-.064,1.737.753-.167.319-.736.161-.9.437s.208.425.306.631c.246.522-.628.81.044,1.157.4.208.892.307.987.834a.711.711,0,0,1-.515.811" transform="translate(-141.155 -99.985)" fill="#d52b1e"/>
    <path id="패스_7312" data-name="패스 7312" d="M201.787,125.237c-.353.131-.87-.05-.964.489-.073.412.319.5.443.805.213.526-.535.732-.913.773s-.3-.189-.6-.339c-.635-.308-1.264.3-1.428.885-.129.462.286.49.547.745-.143.176-.453.256-.649.388a2.894,2.894,0,0,0,1.036.473c.192.065.465.036.63.149a.716.716,0,0,1,.2.837c-.537.872-2.6-1.246-3.079.174.314.293.98.1,1.233.452a.648.648,0,0,1-.181.837c-.3.179-.229-.09-.485-.088-.171,0-.251.164-.4.228a.661.661,0,0,1-.731-.124,3.417,3.417,0,0,1-.686-.678c-.118-.153-.189-.4-.416-.407-.426-.013-.5.541-.414.827.062.2.609.776.234.891-.445.136-.59-.856-.734-1.089-.223.115-.907-.754-1.162-.893a.93.93,0,0,0-1.211.279c-.19.278-.071.657-.283.944a1.292,1.292,0,0,1-.658.406c-.782.248-.494-.38-.492-.937,0-.419-.213-.529-.569-.257-.333.253-.272.839-.64,1.024-.5.251-.376-1.051-.319-1.3.112-.491.529-1.085.115-1.56-.3-.34-.586-.01-.8.252-.118.146-.367.591-.581.576-.32-.023-.219-.5-.194-.7.038-.309.233-1.217-.434-.816-.539.323-.272,1-.356,1.474-.169.016-.487-.116-.625,0-.172.146-.045.636-.13.844-.247.6-.418.362-.634.062-.238-.331-.438-.167-.651.11a2.575,2.575,0,0,1-.688.712c-.458.3-.846.346-.781-.314.052-.519.853-1.258.693-1.764-.125-.4-.535-.125-.776.048-.1.074-.219.267-.384.239-.2-.033-.1-.143-.205-.279-.3-.382-.58-.178-1.054-.076-.077-.17.041-.387.135-.548a.9.9,0,0,1-.877.218c-.512-.316.6-.733.485-1.068-.065-.194-.6-.028-.738,0-.22.044-.58.211-.774.039s-.077-.543.121-.671c-.723.071-.484-.466,0-.733.26-.144.949-.384,1.013-.739a.188.188,0,0,0-.109-.232.3.3,0,0,1,.318.176c.143.336-.818.743-.4,1.15.089.086.29-.054.4.015.145.091.137.172.224.3.141.2-.066.449.32.468.289.015.487-.287.659-.468.238-.25.638-.673,1-.333.287.272.064.893.022,1.218s-.132.731.266.794c.422.066.71-.55.929-.826.014.333.228.272.478.2.172-.048.306-.231.491-.276.1-.024.229.037.3.015.95-.292.318-1.235.851-1.685.77-.65,1.415,1.162,2.132,1.215.461.034,1.08-.141,1.207-.538.093-.29-.139-1.025.456-.948.493.064.447,1.1.639,1.443.13.232.547,1.049.791,1.077.648.076.443-.815.633-1.1.658-.984.723,1.075,1.3,1.056.316-.01.288-.382.46-.591.313-.384.192-.214.538-.032a1.033,1.033,0,0,0,1.5-.413c.156-.439-.286-.667-.351-1.005-.144-.757,1.007-.332,1.42-.629.233-.167.286-.5.511-.672.287-.217.382-.047.667-.109.724-.158.453-.7-.036-.95-.9-.462-2.244-.043-3.021-.676-1.214-.987,1.318-1.49,1.793-1.852-.164-.688-2.08.232-2.222-.387-.1-.438.8-.906,1.079-1.049.194-.1.365-.176.52-.27a.217.217,0,0,0,.052.144c.368.419.808-.444.9-.666a2.884,2.884,0,0,1,1.017-1.287c.273-.2,1-.809.98-.143-.01.466-.868,1.336-.654,1.777.078.162.226.023.331.139.148.164-.07.185-.029.37.067.307.522.067.8.16.4-.088,2.166-.064,1.737.753-.167.319-.736.161-.9.437s.208.425.306.631c.246.522-.628.81.044,1.157.4.208.892.307.987.834a.711.711,0,0,1-.515.811" transform="translate(-152.271 -99.985)" fill="#880f06"/>
    <path id="패스_7313" data-name="패스 7313" d="M163.648,17.8c-.324.254-.924.155-1.309.23.426.2.269.649-.08.878a2.391,2.391,0,0,1-1.187.183,2.64,2.64,0,0,1-.628.051c-.155-.022-.309-.232-.478-.164s-.262.675-.357.831c-.047-.038-.119-.034-.17-.1-.19.584-.607.13-.969.085-.678-.082-.792.328-.906.86-.119.554-.368,2.389-1.245,1.53-.348-.34-.429-.77-.853-1.021-.3-.176-.47-.125-.62-.49-.164-.4-.145-1.485-.814-.8-.326.335-.292.979-.735,1.24a1.308,1.308,0,0,1-.974.04c-.57-.424.4-1.383,0-1.9-.628-.806-1.386,2.238-1.865.348a8.652,8.652,0,0,1-.039-1.2c-.065-.571-.17-.347-.641-.221a.889.889,0,0,0-.044-.473c-.991.264-1.4,1.362-1.95,2.22-.261.405-.7,1.224-1.3.95-.823-.375.29-1.6-.646-1.98-1.066-.435-1.615,1.254-2.556,1.456-.671.144-.935-.439-.626-.944.348-.571,1.3-.975.669-1.685-.61-.683-2.908-.694-1.281-1.771.6-.4,1.453-.426,1.409-1.28a2.185,2.185,0,0,0-.1-.554,1.912,1.912,0,0,0-1.136-1.217c-.493-.19-1.22-.119-1.611-.512-.719-.721.473-1.016.6-1.653.14-.7-.944-.363-.607-1.063.266-.552,1.148-.167,1.109-.979-.026-.536-.35-.279-.729-.57-.622-.478.141-1.129.547-1.475a1.308,1.308,0,0,1,1.605-.06c.543.3.662.907,1.125,1.269a1.256,1.256,0,0,0,1.4.071c.533-.352.5-1.119.372-1.661-.082-.355-.66-.934-.371-1.323.524-.706,1.187.791,1.379-.524.1-.661-.406-1.189.378-1.634a1.112,1.112,0,0,1,.922.031c.87.3,1.338.477,1.451-.625.069-.678-.056-1.455.587-1.922.743-.539,1.393-.251,1.407.618.009.512-.309.93.069,1.271.535.481,1.358-.312,1.307.7a7.376,7.376,0,0,1-.391,1.2c-.141.595-.079.673.414.682s.8.06.84.692c.035.6-.362,1.434.231,1.868.3.219.583-.1.862.022.472.2.266,1.979,1.161,1.51.543-.284.375-1.306.734-1.735.6-.72,1.142-.206.983.511a1.833,1.833,0,0,1,.467-.09c.14.025.15.251.316.238.418-.033.887-1.1,1.219-1.38.3-.248,1.247-.623,1.475-.183.2.387-.343.822-.462,1.2a.441.441,0,0,0-.023.125c.84,0-.792,2.364-.373,2.755.561.524,2.252-.294,2.39.846.088.725-.51.734-.859,1.142-.076.089-.031.261-.107.372-.114.167-.568.4-.608.587-.1.481.563.375.9.423.545.079.481.227.426.733-.054.485-.05.422.372.643a1.34,1.34,0,0,1,.824,1c.029.238.017.547.03.735a1.035,1.035,0,0,1-.329,1.042" transform="translate(-119.077 0.001)" fill="#ff4631"/>
    <path id="패스_7314" data-name="패스 7314" d="M169.77,59.156c-.324.254-.924.155-1.309.23.426.2.269.649-.08.878a2.391,2.391,0,0,1-1.187.183,2.641,2.641,0,0,1-.628.051c-.155-.022-.309-.232-.478-.164s-.262.675-.357.831c-.047-.038-.119-.034-.17-.1-.19.584-.607.13-.969.085-.678-.082-.792.328-.906.86-.119.554-.368,2.389-1.245,1.53-.348-.34-.429-.77-.853-1.021-.3-.176-.47-.125-.62-.49-.164-.4-.145-1.485-.814-.8-.326.335-.292.979-.735,1.24a1.308,1.308,0,0,1-.974.04c-.57-.424.4-1.383,0-1.9-.628-.806-1.386,2.238-1.865.348a8.657,8.657,0,0,1-.039-1.2c-.065-.571-.17-.347-.641-.221a.889.889,0,0,0-.044-.473c-.991.264-1.4,1.362-1.95,2.22-.261.405-.7,1.224-1.3.95-.823-.375.29-1.6-.646-1.98-1.066-.435-1.615,1.254-2.556,1.456-.671.144-.935-.439-.626-.944.348-.571,1.3-.975.669-1.685-.61-.683-2.908-.694-1.281-1.771.6-.4,1.453-.426,1.409-1.28a2.184,2.184,0,0,0-.1-.554c.484-.04.838.115.84.7s-1,.875-.927,1.392c.079.54.8.183,1.068,0-.125.4-.354.868.156,1.016.29.084.588-.247.855-.183.318.077.074.184.264.368s-.124.255.268.157c.28-.071.5-.594.778-.725.7-.33.694.433.574.965-.031.135-.246.466-.12.583.274.254.653-.194.793-.374.633-.815.111-1.576.147-2.458a1.9,1.9,0,0,1,.6-1.246c.182-.214.662-.941,1.027-.916.8.056.437,1.61.693,2.058a1.691,1.691,0,0,0,1.112-.66c.324-.356.232-.782.479-1.1.525-.668.95-.055.982.508s-.227.983.247,1.341c.268.2.639.2.889.444.2.193.446,1.428.892.683.221-.368-.244-.991.33-1.16.6-.176.569.7.758,1.023a1.345,1.345,0,0,0,1.662.648,1.1,1.1,0,0,0,.715-1.308c-.1-.323-.7-.647-.652-1.021.1-.781,1.563-.019,1.9.153.739.373,1.343-.424.583-.934-.415-.278-1.91-.2-1.53-.883s2.023-.265,2-1.182c-.027-.933-1.772-.879-2.357-.892-.525-.012-3.133.485-2.492-.711.918-1.71,4.153.174,4.285-2.355a4.321,4.321,0,0,0,.838-.657.441.441,0,0,0-.023.125c.84,0-.792,2.364-.373,2.755.561.524,2.252-.294,2.39.846.088.725-.51.734-.859,1.142-.076.089-.031.261-.107.372-.114.167-.568.4-.608.587-.1.481.563.375.9.423.545.079.481.227.426.733-.054.485-.05.422.372.643a1.34,1.34,0,0,1,.824,1c.029.238.017.547.03.735a1.035,1.035,0,0,1-.329,1.042" transform="translate(-125.199 -41.359)" fill="#d52b1e"/>
    <path id="패스_7315" data-name="패스 7315" d="M293.371,140.744a5.227,5.227,0,0,0,2.644,3.884c2.088,1,2.654.706,2.748,1.412.053.4.55.294.55.294s-.088-.574.317-.726a5.6,5.6,0,0,0,1.745-1.145,4.326,4.326,0,0,0,1.119-2.212,10.474,10.474,0,0,1-1.043,1.682c-.517.54-.931.76-1.119.644-.164-.1.148-.963.148-.963s-.459.577-.715.511c-.1-.025.36-1.143.455-1.837a1.961,1.961,0,0,0-.01-.929s-.265,1.011-.534,1.726-.921,1.658-1.131,1.578-.106-1.155.078-1.752.5-1.3.5-1.3a2.188,2.188,0,0,0-.785.968c-.258.573-.237.839-.358.761a4.216,4.216,0,0,1-.708-2.1,7.1,7.1,0,0,1,.368-2.4,3.536,3.536,0,0,0-.875,1.413,3.584,3.584,0,0,0-.079,2.217,3.727,3.727,0,0,1-1.028-2.5,3.1,3.1,0,0,0-.231,1.178c-.007.7.186.9.092,1.016-.07.085-.693-.445-.86-1.17a3.431,3.431,0,0,1-.092-1.047,2.354,2.354,0,0,0-.341,1.048c-.045.532.2,1.013.076.992-.2-.033-.715-.836-.929-1.239" transform="translate(-248.866 -117.772)" fill="#f9681e"/>
    <path id="패스_7316" data-name="패스 7316" d="M293.149,143.785a4.327,4.327,0,0,1-.743,2.365l-.091.112h0a5.417,5.417,0,0,1-1.443,1.3c-.376.216-.195.769-.195.769s-.474.183-.59-.2c-.207-.681-.718-.3-2.941-.945a4.715,4.715,0,0,1-2.357-1.713,5.576,5.576,0,0,1-.885-1.688c.277.363.916,1.071,1.118,1.071.126,0-.195-.434-.237-.966a2.358,2.358,0,0,1,.165-1.09,3.431,3.431,0,0,0,.261,1.018c.284.688.984,1.11,1.04,1.014.074-.127-.15-.294-.257-.988a3.1,3.1,0,0,1,.036-1.2,3.727,3.727,0,0,0,1.421,2.3,3.582,3.582,0,0,1-.283-2.2,3.538,3.538,0,0,1,.632-1.537,7.1,7.1,0,0,0,.029,2.431,4.217,4.217,0,0,0,1.041,1.961c.133.057.069-.2.23-.809a2.19,2.19,0,0,1,.616-1.083s-.192.744-.277,1.362-.012,1.7.209,1.741.71-.992.858-1.741.245-1.79.245-1.79a1.958,1.958,0,0,1,.162.915c.019.7-.252,1.878-.149,1.887.263.023.622-.62.622-.62s-.168.9.011.974c.2.085.576-.2,1-.817a10.447,10.447,0,0,0,.755-1.829" transform="translate(-240.833 -119.783)" fill="#ff8934"/>
    <path id="패스_7317" data-name="패스 7317" d="M297.26,170.131a5.417,5.417,0,0,1-1.443,1.3c-.375.216-.194.769-.194.769s-.474.183-.59-.2c-.208-.681-.719-.3-2.942-.945a4.716,4.716,0,0,1-2.358-1.713c1.174.985,4.832,2.463,7.527.79" transform="translate(-245.78 -143.652)" fill="#f9681e"/>
    <path id="패스_7318" data-name="패스 7318" d="M233.034,243.479a17.223,17.223,0,0,1,.532,2.21c.063.755-.105.645-.247.931a.8.8,0,0,0-.03.927,6.32,6.32,0,0,1,.176,2.688c-.09.9-.362,1.1-.31,1.37.031.156.232-.017.318-.071.123-.076-.083.591.309.906a2.257,2.257,0,0,0,1.063.365.767.767,0,0,0-.005-.477l.274.345a1.085,1.085,0,0,0-.2-.857,1.949,1.949,0,0,1-.63-1.972,3.541,3.541,0,0,1,.479-1.67,1.947,1.947,0,0,0,.13-1.005c-.006-.314.653-.546,1.129-1.148.391-.5.225-.682.7-.9l.186-.085Z" transform="translate(-197.682 -206.543)" fill="#42210b"/>
    <path id="패스_7319" data-name="패스 7319" d="M292.585,252.739a13.949,13.949,0,0,1-.225-2.794c.105-.371.4-.607.435-.835a4.007,4.007,0,0,0-.116-.9c-.034-.223.044-2.086.055-2.269a.053.053,0,0,1,.005-.018l-2.536,1.046c.24.108.717.339.73.483a8.627,8.627,0,0,1,.018,1.411,1.052,1.052,0,0,0,.079.636,10.627,10.627,0,0,1,.156,1.113,13.182,13.182,0,0,1,.364,2.048c-.028.56-.14,1.185-.038,1.163s.423-.349.444-.248-.044.559.332.741a4.85,4.85,0,0,0,1.174.266.569.569,0,0,0-.056-.441s.23.263.277.324c0,0,.147-.17-.15-.55s-.855-.679-.948-1.171" transform="translate(-246.178 -208.612)" fill="#42210b"/>
    <path id="패스_7320" data-name="패스 7320" d="M248.274,187.4c-.032.025-.4.058-.677.131s-.33.293-.435.353-.61-.306-.7-.392-.534-.1-.534-.1-.35.8-.441,1-.947.428-1.1.721a18.982,18.982,0,0,1-1.438,1.6s.028.351.043.686a5.338,5.338,0,0,1-.409,1.585,8.819,8.819,0,0,1-1.3,1,3.031,3.031,0,0,0-.744.616,12.465,12.465,0,0,0-.164,1.324,4.129,4.129,0,0,1,.088.926c-.043.232-.344.464-.461.839a14.531,14.531,0,0,0,.138,2.859c.078.506.626.827.911,1.224s.133.566.133.566c-.045-.064-.266-.34-.266-.34a.593.593,0,0,1,.042.453,4.757,4.757,0,0,1-1.165-.308c-.37-.2-.291-.662-.309-.766s-.348.22-.451.24.028-.616.074-1.186a13.723,13.723,0,0,0-.3-2.1,11.123,11.123,0,0,0-.122-1.141,1.1,1.1,0,0,1-.06-.651,8.616,8.616,0,0,0,.028-1.393.053.053,0,0,0,0-.007c0-.007,0-.013,0-.019V195.1c-.012-.2-.849-.58-.849-.58s-1.764-.018-2.431-.077a1.343,1.343,0,0,0-1.161.245.782.782,0,0,0-.282.25,6.8,6.8,0,0,1-.332.735c-.416.658-1.049.955-1.013,1.274a2.026,2.026,0,0,1-.032,1.035,3.669,3.669,0,0,0-.316,1.743,2.013,2.013,0,0,0,.817,1.945,1.127,1.127,0,0,1,.281.853l-.306-.325a.8.8,0,0,1,.051.485,2.223,2.223,0,0,1-1.094-.27c-.42-.283-.28-.981-.4-.892-.081.063-.264.258-.309.1-.079-.268.173-.5.176-1.422a6.587,6.587,0,0,0-.435-2.717.833.833,0,0,1-.06-.945c.113-.3.292-.207.156-.969a17.619,17.619,0,0,0-.878-2.018,12.767,12.767,0,0,1-.224-1.664c-.076-.171-.427-.244-.427-.484,0-.47.851-1.4,1.545-2.215s1.49-.469,2.1-.655,3.388-.1,3.8-.3a16.54,16.54,0,0,0,1.63-1.26c.325-.24,1.6.292,1.966.029s2.344-1.591,2.344-1.591a1.846,1.846,0,0,1-1.775-1.162,2.733,2.733,0,0,1,2.043.432,2.41,2.41,0,0,1,.92-.206c.3-.012,1.154.075,1.3.072s.028.213.28.508,1.658.461,1.855.537a3,3,0,0,1,.773.82,3.612,3.612,0,0,1-.108.986" transform="translate(-194.765 -156.259)" fill="#603813"/>
    <path id="패스_7321" data-name="패스 7321" d="M262.93,232.525c-.012-.2-.849-.58-.849-.58s-1.764-.018-2.431-.077a1.344,1.344,0,0,0-1.161.246.784.784,0,0,0-.282.25,18.464,18.464,0,0,0,.132-2.446s2.789.316,3.616-.217a11.536,11.536,0,0,0,1.658-1.377,13.663,13.663,0,0,0-.683,4.2" transform="translate(-219.036 -193.686)" fill="#42210b"/>
    <path id="패스_7322" data-name="패스 7322" d="M312.983,201.726c-.282.073-.33.293-.435.353s-.61-.306-.7-.392-.534-.1-.534-.1-.35.8-.441,1-.947.428-1.1.721a18.964,18.964,0,0,1-1.438,1.6s.028.351.043.686a5.33,5.33,0,0,1-.409,1.585,8.828,8.828,0,0,1-1.3,1,.3.3,0,0,1,.016-.042c.231-.5.861-.939.941-1.46a5.077,5.077,0,0,0-.43-2.369,18.46,18.46,0,0,0,1.771-1.118,8.032,8.032,0,0,0,1.142-1.111c.165-.2.492-.121.72-.312s.062-.829.362-.83a2.3,2.3,0,0,1,1.132.651c.194.228.353.217.656.139" transform="translate(-260.15 -170.453)" fill="#42210b"/>
    <path id="패스_7323" data-name="패스 7323" d="M347.741,199.4c-.112.064-.385.275-.448.295s-.372-.362-.372-.362.227.373.361.544.47.084.458-.039,0-.438,0-.438" transform="translate(-294.292 -169.094)" fill="#42210b"/>
    <path id="패스_7324" data-name="패스 7324" d="M307.733,184.8a3.064,3.064,0,0,1,1.623.439c.5.392-.331.552-.812.185s-.812-.624-.812-.624" transform="translate(-261.049 -156.763)" fill="#42210b"/>
    <path id="패스_7325" data-name="패스 7325" d="M329.05,189.274c.023-.021.383-.246.454-.172s.082.26,0,.292-.454-.12-.454-.12" transform="translate(-279.132 -160.402)" fill="#42210b"/>
  </g>
</svg>
